<?xml version="1.0" encoding="UTF-8" standalone="no"?>
<!-- Generator: Adobe Illustrator 23.0.2, SVG Export Plug-In . SVG Version: 6.00 Build 0)  -->

<svg
   xmlns:dc="http://purl.org/dc/elements/1.1/"
   xmlns:cc="http://creativecommons.org/ns#"
   xmlns:rdf="http://www.w3.org/1999/02/22-rdf-syntax-ns#"
   xmlns:svg="http://www.w3.org/2000/svg"
   xmlns="http://www.w3.org/2000/svg"
   xmlns:sodipodi="http://sodipodi.sourceforge.net/DTD/sodipodi-0.dtd"
   xmlns:inkscape="http://www.inkscape.org/namespaces/inkscape"
   version="1.1"
   id="Capa_1"
   x="0px"
   y="0px"
   viewBox="0 0 393.49999 121.5"
   xml:space="preserve"
   sodipodi:docname="logo_kunde.svg"
   width="393.5"
   height="121.5"
   inkscape:version="0.92.4 (unknown)"><metadata
   id="metadata75"><rdf:RDF><cc:Work
       rdf:about=""><dc:format>image/svg+xml</dc:format><dc:type
         rdf:resource="http://purl.org/dc/dcmitype/StillImage" /><dc:title>pie_logo</dc:title></cc:Work></rdf:RDF></metadata><defs
   id="defs73" /><sodipodi:namedview
   pagecolor="#ffffff"
   bordercolor="#666666"
   borderopacity="1"
   objecttolerance="10"
   gridtolerance="10"
   guidetolerance="10"
   inkscape:pageopacity="0"
   inkscape:pageshadow="2"
   inkscape:window-width="1920"
   inkscape:window-height="1016"
   id="namedview71"
   showgrid="false"
   fit-margin-top="0"
   fit-margin-left="0"
   fit-margin-right="0"
   fit-margin-bottom="0"
   inkscape:zoom="0.72717805"
   inkscape:cx="131.5296"
   inkscape:cy="55.75"
   inkscape:window-x="0"
   inkscape:window-y="27"
   inkscape:window-maximized="1"
   inkscape:current-layer="Capa_1" />
<style
   type="text/css"
   id="style2">
	.st0{fill:#1F1F1F;}
	.st1{fill-rule:evenodd;clip-rule:evenodd;fill:#1F1F1F;}
	.st2{fill-rule:evenodd;clip-rule:evenodd;fill:#EC1D23;}
	.st3{fill:#333333;}
</style>
<title
   id="title4">pie_logo</title>
<path
   class="st0"
   d="m 140.1,77.4 c -0.9,0 -1.8,-0.5 -2.3,-1.3 L 122.3,50.8 v 23.9 c 0,1.4 -1.2,2.6 -2.6,2.6 h -17 c -1.4,0 -2.6,-1.2 -2.6,-2.6 v -62 c 0,-1.4 1.2,-2.6 2.6,-2.6 h 17 c 1.4,0 2.6,1.2 2.6,2.6 v 19.2 l 14.9,-20.7 c 0.5,-0.7 1.3,-1.1 2.2,-1.1 h 20.2 c 1,0 2,0.6 2.4,1.5 0.5,0.9 0.3,2 -0.3,2.8 l -20,25.8 21.8,33.1 c 0.8,1.2 0.6,2.8 -0.6,3.6 -0.5,0.3 -1,0.5 -1.6,0.5 0,0 -21.2,0 -21.2,0 z"
   id="path6"
   inkscape:connector-curvature="0"
   style="fill:#1f1f1f" />
<path
   class="st0"
   d="m 193,78.7 c -6.9,0 -12.7,-1.6 -17.2,-4.9 -4.5,-3.3 -7.2,-8.6 -7.3,-15.5 v -30 c 0,-1.1 0.9,-2 2,-2 h 13.1 c 1.1,0 2,0.9 2,2 v 29.2 c -0.1,2.2 0.6,4.3 2,6 1.2,1.3 3,1.9 5.4,1.9 2.4,0 4.2,-0.6 5.4,-2 1.3,-1.7 2,-3.8 2,-5.9 V 28.2 c 0,-1.1 0.9,-2 2,-2 h 13.1 c 1.1,0 2,0.9 2,2 v 30 c 0.1,4.1 -1.1,8.2 -3.5,11.6 -2.3,3.1 -5.4,5.4 -9,6.7 -3.8,1.5 -7.9,2.2 -12,2.2 z"
   id="path8"
   inkscape:connector-curvature="0"
   style="fill:#1f1f1f" />
<path
   class="st0"
   d="m 254.7,77.7 c -0.8,0 -1.6,-0.4 -1.9,-1.2 L 240.6,48.6 v 27 c 0,1.1 -0.9,2 -2,2 h -11.8 c -1.1,0 -2,-0.9 -2,-2 V 28.2 c 0,-1.1 0.9,-2 2,-2 h 18.3 c 0.8,0 1.6,0.4 1.9,1.2 l 12,26.9 V 28.2 c 0,-1.1 0.9,-2 2,-2 h 11.8 c 1.1,0 2,0.9 2,2 v 47.5 c 0,1.1 -0.9,2 -2,2 z"
   id="path10"
   inkscape:connector-curvature="0"
   style="fill:#1f1f1f" />
<path
   class="st1"
   d="m 304.9,64.5 c 2.1,0 4.1,-0.5 5.9,-1.4 1.8,-0.9 3.3,-2.3 4.3,-4.1 1.1,-2.2 1.7,-4.6 1.6,-7 0,-1.9 -0.3,-3.8 -1,-5.6 -1.1,-2.8 -3.4,-5.1 -6.3,-6.1 -1.4,-0.5 -3,-0.8 -4.5,-0.8 h -4.1 v 25 z m -19.2,13.2 c -1.1,0 -2,-0.9 -2,-2 V 28.2 c 0,-1.1 0.9,-2 2,-2 h 19.9 c 3.9,-0.1 7.9,0.4 11.7,1.3 3.4,0.8 6.5,2.4 9.2,4.5 2.7,2.2 4.7,5 6,8.2 1.4,3.7 2.1,7.7 2,11.7 0.1,4 -0.6,8 -2,11.8 -1.2,3.2 -3.3,6 -6,8.2 -2.7,2.1 -5.8,3.7 -9.2,4.5 -3.8,1 -7.8,1.4 -11.7,1.4 h -19.9 z"
   id="path12"
   inkscape:connector-curvature="0"
   style="clip-rule:evenodd;fill:#1f1f1f;fill-rule:evenodd" />
<path
   class="st0"
   d="m 344.1,77.4 c -1.4,0 -2.6,-1.2 -2.6,-2.6 v 0 -62 c 0,-1.4 1.2,-2.6 2.6,-2.6 v 0 h 46.8 c 1.4,0 2.6,1.2 2.6,2.6 v 0 12 c 0,1.4 -1.2,2.6 -2.6,2.6 v 0 h -27.2 v 7.5 h 24.7 c 1.4,0 2.6,1.2 2.6,2.6 v 0 12 c 0,1.4 -1.2,2.6 -2.6,2.6 v 0 H 363.7 V 60 h 27.1 c 1.4,0 2.6,1.2 2.6,2.6 v 0 12 c 0,1.4 -1.2,2.6 -2.6,2.6 v 0 h -46.7 z"
   id="path14"
   inkscape:connector-curvature="0"
   style="fill:#1f1f1f" />
<path
   class="st2"
   d="M 79.8,38.7 C 79.8,17.3 61.9,0 40,0 31.5,0 23.1,2.7 16.2,7.7 V 0 h -16 v 38.1 0 c 0,0.2 0,0.4 0,0.6 0,21.5 17.9,38.8 39.8,38.8 8.8,0 17.3,-2.8 24.3,-8.1 v 8 h 15.5 v -37.1 0 c 0,-0.5 0,-1.1 0,-1.6 z M 40,61.9 c -1.3,0 -2.6,-0.1 -3.9,-0.3 l 11.1,-11 8.6,4.8 L 51.3,38.9 61.5,33.3 45.5,29 V 17.5 l -11.9,11.6 -10.2,-5.7 4.4,15.8 -10.1,5.6 17.8,4.7 v 12 C 24.4,59.5 16.3,50 16.2,38.7 c 0,-12.8 10.7,-23 23.8,-23 13.1,0 23.8,10.2 23.8,23 0,12.8 -10.7,23.2 -23.8,23.2 z M 35.1,31.6 h 9.1 l 4.6,8 -5.1,8.4 h -7.6 l -5.4,-9 z"
   id="path16"
   inkscape:connector-curvature="0"
   style="clip-rule:evenodd;fill:#ec1d23;fill-rule:evenodd" />
<g
   id="g68"
   transform="translate(0.2)">
	<path
   class="st3"
   d="m 12,107.9 c 0,-1.2 -0.4,-2.1 -1.1,-2.8 C 10.2,104.4 9,103.9 7.3,103.2 5.7,102.5 4.2,102 3.4,101.3 2.6,100.6 1.8,100 1.4,99 0.9,98.1 0.7,97.1 0.7,96.1 c 0,-1.9 0.7,-3.6 1.9,-4.8 1.2,-1.2 2.9,-1.9 5.1,-1.9 1.3,0 2.7,0.4 3.7,1.1 1.2,0.7 2,1.5 2.5,2.7 0.5,1.2 0.9,2.4 0.9,3.7 h -3.1 c 0,-1.5 -0.4,-2.7 -1.2,-3.6 -0.8,-0.8 -1.7,-1.2 -3.2,-1.2 -1.2,0 -2.1,0.4 -2.9,1.1 -0.8,0.7 -1.1,1.6 -1.1,2.9 0,1.1 0.4,1.9 1.2,2.5 0.8,0.6 1.9,1.2 3.5,1.9 2.4,0.8 4,1.7 5.2,2.9 1.2,1.2 1.5,2.7 1.5,4.5 0,2 -0.7,3.6 -1.9,4.7 -1.2,1.2 -3.1,1.7 -5.2,1.7 -1.3,0 -2.7,-0.3 -3.9,-0.9 -1.2,-0.7 -2.1,-1.5 -2.8,-2.7 -0.7,-1.2 -1.1,-2.4 -1.1,-3.7 h 3.1 c 0,1.5 0.4,2.7 1.2,3.6 0.9,0.9 2,1.2 3.5,1.2 1.5,0 2.4,-0.4 3.1,-1.1 0.9,-0.6 1.3,-1.6 1.3,-2.8 z"
   id="path18"
   inkscape:connector-curvature="0"
   style="fill:#333333" />
	<path
   class="st3"
   d="m 18.3,104.3 c 0,-2.7 0.7,-4.7 1.9,-6.3 1.2,-1.5 2.9,-2.3 5.1,-2.3 2.1,0 3.7,0.8 5.1,2.3 1.2,1.5 1.9,3.6 1.9,6.1 v 1.9 c 0,2.7 -0.7,4.7 -1.9,6.3 -1.2,1.5 -2.9,2.3 -5.1,2.3 -2.1,0 -3.7,-0.8 -5.1,-2.3 -1.2,-1.5 -1.9,-3.6 -1.9,-6 z m 2.9,1.6 c 0,1.9 0.4,3.3 1.2,4.4 0.8,1.1 1.7,1.6 2.9,1.6 2.7,0 3.9,-1.9 4,-5.7 v -2 c 0,-1.9 -0.4,-3.3 -1.2,-4.4 -0.8,-1.1 -1.7,-1.6 -2.9,-1.6 -1.2,0 -2.1,0.5 -2.9,1.6 -0.8,1.1 -1.2,2.5 -1.2,4.3 0.1,0 0.1,1.8 0.1,1.8 z"
   id="path20"
   inkscape:connector-curvature="0"
   style="fill:#333333" />
	<path
   class="st3"
   d="M 39.6,114 H 36.7 V 88.4 h 2.9 z"
   id="path22"
   inkscape:connector-curvature="0"
   style="fill:#333333" />
	<path
   class="st3"
   d="m 53.8,112.4 c -1.1,1.2 -2.4,1.9 -4.3,1.9 -1.6,0 -2.9,-0.5 -3.7,-1.6 -0.9,-1.2 -1.2,-2.8 -1.2,-4.9 V 96 h 2.9 v 11.5 c 0,2.8 0.9,4.1 2.5,4.1 1.7,0 3.1,-0.8 3.7,-2.4 V 95.9 h 2.9 V 114 h -2.8 z"
   id="path24"
   inkscape:connector-curvature="0"
   style="fill:#333333" />
	<path
   class="st3"
   d="m 67.8,111.9 c 1.1,0 1.7,-0.3 2.4,-0.9 0.7,-0.6 0.9,-1.5 1.1,-2.7 H 74 c -0.1,1.7 -0.7,3.2 -1.9,4.3 -1.2,1.2 -2.5,1.7 -4.3,1.7 -2.3,0 -3.9,-0.8 -5.1,-2.1 -1.2,-1.3 -1.7,-3.6 -1.7,-6.3 v -2 c 0,-2.8 0.7,-4.8 1.7,-6.3 1.2,-1.3 2.9,-2.1 5.1,-2.1 1.9,0 3.3,0.7 4.4,1.7 1.1,1 1.6,2.8 1.7,4.8 H 71.1 C 71,100.7 70.7,99.7 70,98.9 c -0.7,-0.8 -1.3,-1.1 -2.4,-1.1 -1.2,0 -2.3,0.4 -2.9,1.2 -0.7,0.9 -1.1,2.3 -1.1,4.3 v 2.3 c 0,2.1 0.3,3.7 0.9,4.5 0.9,1.2 1.8,1.8 3.3,1.8 z"
   id="path26"
   inkscape:connector-curvature="0"
   style="fill:#333333" />
	<path
   class="st3"
   d="m 80.8,91.2 c 0,0.5 -0.1,0.9 -0.4,1.2 -0.3,0.4 -0.8,0.5 -1.2,0.5 -0.5,0 -1.1,-0.1 -1.2,-0.5 -0.3,-0.4 -0.4,-0.8 -0.4,-1.2 0,-0.5 0.1,-0.9 0.4,-1.2 0.3,-0.3 0.7,-0.5 1.2,-0.5 0.7,0 1.1,0.1 1.2,0.5 0.1,0.4 0.4,0.7 0.4,1.2 z M 80.6,114 H 77.7 V 96 h 2.9 z"
   id="path28"
   inkscape:connector-curvature="0"
   style="fill:#333333" />
	<path
   class="st3"
   d="m 85.1,104.3 c 0,-2.7 0.7,-4.7 1.9,-6.3 1.2,-1.5 2.9,-2.3 5.1,-2.3 2.1,0 3.7,0.8 5.1,2.3 1.2,1.5 1.9,3.6 1.9,6.1 v 1.9 c 0,2.7 -0.7,4.7 -1.9,6.3 -1.2,1.5 -2.9,2.3 -5.1,2.3 -2.1,0 -3.7,-0.8 -5.1,-2.3 -1.2,-1.5 -1.9,-3.6 -1.9,-6 z m 3,1.6 c 0,1.9 0.4,3.3 1.2,4.4 0.8,1.1 1.7,1.6 2.9,1.6 2.7,0 3.9,-1.9 4,-5.7 v -2 c 0,-1.9 -0.4,-3.3 -1.2,-4.4 -0.8,-1.1 -1.7,-1.6 -2.9,-1.6 -1.2,0 -2.1,0.5 -2.9,1.6 -0.8,1.1 -1.2,2.5 -1.2,4.3 v 1.9 h 0.1 z"
   id="path30"
   inkscape:connector-curvature="0"
   style="fill:#333333" />
	<path
   class="st3"
   d="m 105.9,96 0.1,1.9 c 1.2,-1.5 2.7,-2.3 4.4,-2.3 3.2,0 4.8,2.1 4.8,6.3 v 12 h -2.9 V 102 c 0,-1.3 -0.3,-2.4 -0.8,-3.1 -0.5,-0.7 -1.2,-0.9 -2.1,-0.9 -0.8,0 -1.3,0.3 -2,0.8 -0.7,0.5 -1.1,1.2 -1.3,1.9 v 13.2 h -2.9 V 96 Z"
   id="path32"
   inkscape:connector-curvature="0"
   style="fill:#333333" />
	<path
   class="st3"
   d="m 126.3,114.4 c -2.3,0 -3.9,-0.7 -5.2,-2 -1.2,-1.3 -1.7,-3.3 -1.9,-6 v -2.1 c 0,-2.7 0.7,-4.8 1.7,-6.3 1.2,-1.5 2.8,-2.3 4.9,-2.3 2.1,0 3.7,0.7 4.7,2 1.1,1.3 1.5,3.5 1.6,6.3 v 1.9 H 122 v 0.4 c 0,1.9 0.4,3.3 1.2,4.1 0.8,0.9 1.7,1.2 3.2,1.2 0.9,0 1.6,-0.1 2.3,-0.5 0.7,-0.4 1.2,-0.9 1.9,-1.5 l 1.5,1.9 c -1,2 -3.1,2.9 -5.8,2.9 z m -0.1,-16.3 c -1.2,0 -2.1,0.4 -2.7,1.2 -0.7,0.9 -0.9,2.1 -1.1,3.9 h 7.1 v -0.4 c -0.1,-1.7 -0.4,-2.9 -0.9,-3.7 -0.5,-0.6 -1.3,-1 -2.4,-1 z"
   id="path34"
   inkscape:connector-curvature="0"
   style="fill:#333333" />
	<path
   class="st3"
   d="m 145.2,109.5 c 0,-0.7 -0.3,-1.2 -0.8,-1.6 -0.5,-0.5 -1.3,-1.1 -2.8,-1.6 -1.6,-0.7 -2.7,-1.2 -3.5,-1.6 -0.7,-0.5 -1.2,-1.1 -1.5,-1.6 -0.3,-0.5 -0.5,-1.2 -0.5,-2.1 0,-1.5 0.5,-2.7 1.6,-3.7 1.1,-1 2.4,-1.5 4.1,-1.5 1.7,0 3.2,0.5 4.1,1.5 0.9,1 1.6,2.3 1.6,3.9 h -2.9 c 0,-0.8 -0.3,-1.5 -0.8,-2 -0.5,-0.7 -1.2,-0.9 -2,-0.9 -0.9,0 -1.5,0.3 -2,0.7 -0.5,0.5 -0.8,1.1 -0.8,1.7 0,0.7 0.1,1.2 0.5,1.3 0.4,0.4 1.2,0.9 2.7,1.3 2.1,0.9 3.7,1.6 4.4,2.5 0.8,0.9 1.2,1.9 1.2,3.2 0,1.5 -0.5,2.8 -1.6,3.7 -1.2,0.9 -2.5,1.3 -4.3,1.3 -1.9,0 -3.5,-0.5 -4.5,-1.6 -1.2,-1.2 -1.7,-2.4 -1.7,-4 h 2.9 c 0,1.1 0.4,1.7 0.9,2.4 0.5,0.7 1.3,0.9 2.4,0.9 1.1,0 1.7,-0.3 2.3,-0.7 0.7,-0.2 1,-0.9 1,-1.5 z"
   id="path36"
   inkscape:connector-curvature="0"
   style="fill:#333333" />
	<path
   class="st3"
   d="M 165.3,109.2 168.6,96 h 3.2 l -6,20.7 c -0.5,1.5 -1.1,2.8 -1.9,3.6 -0.8,0.8 -1.7,1.2 -2.8,1.2 -0.4,0 -0.9,-0.1 -1.5,-0.3 v -2.5 l 0.7,0.1 c 0.9,0 1.5,-0.3 2,-0.7 0.5,-0.4 0.9,-1.2 1.2,-2.1 l 0.7,-2 -5.3,-18 h 3.2 z"
   id="path38"
   inkscape:connector-curvature="0"
   style="fill:#333333" />
	<path
   class="st3"
   d="m 190.5,98.8 c -0.4,-0.1 -0.9,-0.1 -1.3,-0.1 -1.5,0 -2.5,0.9 -3.2,2.5 v 12.9 h -3 V 96 h 2.9 v 1.9 c 0.8,-1.3 1.9,-2.1 3.3,-2.1 0.5,0 0.9,0.1 1.2,0.3 v 2.7 z"
   id="path40"
   inkscape:connector-curvature="0"
   style="fill:#333333" />
	<path
   class="st3"
   d="m 199.9,114.4 c -2.3,0 -3.9,-0.7 -5.2,-2 -1.2,-1.3 -1.7,-3.3 -1.9,-6 v -2.1 c 0,-2.7 0.7,-4.8 1.7,-6.3 1.2,-1.5 2.8,-2.3 4.9,-2.3 2.1,0 3.7,0.7 4.7,2 1.1,1.3 1.5,3.5 1.6,6.3 v 1.9 h -10 v 0.4 c 0,1.9 0.4,3.3 1.2,4.1 0.8,0.9 1.7,1.2 3.2,1.2 0.9,0 1.6,-0.1 2.3,-0.5 0.7,-0.4 1.2,-0.9 1.9,-1.5 l 1.5,1.9 c -1.3,2 -3.3,2.9 -5.9,2.9 z m -0.3,-16.3 c -1.2,0 -2.1,0.4 -2.7,1.2 -0.7,0.9 -0.9,2.1 -1.1,3.9 h 7.1 v -0.4 c -0.1,-1.7 -0.4,-2.9 -0.9,-3.7 -0.4,-0.6 -1.3,-1 -2.4,-1 z"
   id="path42"
   inkscape:connector-curvature="0"
   style="fill:#333333" />
	<path
   class="st3"
   d="m 218.5,109.5 c 0,-0.7 -0.3,-1.2 -0.8,-1.6 -0.5,-0.5 -1.3,-1.1 -2.8,-1.6 -1.6,-0.7 -2.7,-1.2 -3.5,-1.6 -0.7,-0.5 -1.2,-1.1 -1.5,-1.6 -0.4,-0.7 -0.5,-1.2 -0.5,-2.1 0,-1.5 0.5,-2.7 1.6,-3.7 1.1,-1.1 2.4,-1.5 4.1,-1.5 1.7,0 3.2,0.5 4.1,1.5 0.9,0.9 1.6,2.3 1.6,3.9 H 218 c 0,-0.8 -0.3,-1.5 -0.8,-2 -0.5,-0.7 -1.2,-0.9 -2,-0.9 -0.9,0 -1.5,0.3 -2,0.7 -0.5,0.5 -0.8,1.1 -0.8,1.7 0,0.7 0.1,1.2 0.5,1.3 0.4,0.4 1.2,0.9 2.7,1.3 2.1,0.9 3.7,1.6 4.4,2.5 0.7,0.9 1.2,1.9 1.2,3.2 0,1.5 -0.5,2.8 -1.6,3.7 -1.2,0.9 -2.5,1.3 -4.3,1.3 -1.9,0 -3.5,-0.5 -4.5,-1.6 -1.2,-1.2 -1.7,-2.4 -1.7,-4 h 2.9 c 0,1.1 0.4,1.7 0.9,2.4 0.5,0.7 1.3,0.9 2.4,0.9 1.1,0 1.7,-0.3 2.3,-0.7 0.7,-0.2 0.9,-0.9 0.9,-1.5 z"
   id="path44"
   inkscape:connector-curvature="0"
   style="fill:#333333" />
	<path
   class="st3"
   d="m 238.8,105.9 c 0,2.9 -0.5,4.9 -1.5,6.3 -1,1.4 -2.5,2.1 -4.3,2.1 -1.7,0 -3.2,-0.7 -4.1,-2 V 121 H 226 V 96 h 2.7 l 0.1,2 c 1.1,-1.5 2.4,-2.3 4.3,-2.3 2,0 3.5,0.7 4.4,2 1.1,1.3 1.5,3.5 1.5,6.3 z m -3.1,-1.6 c 0,-2 -0.3,-3.6 -0.9,-4.4 -0.7,-1.1 -1.6,-1.3 -3.1,-1.3 -1.3,0 -2.5,0.8 -3.2,2.1 v 9.3 c 0.8,1.3 1.7,2 3.3,2 1.3,0 2.3,-0.5 2.9,-1.3 0.7,-1.1 0.9,-2.4 1.1,-4.4 z"
   id="path46"
   inkscape:connector-curvature="0"
   style="fill:#333333" />
	<path
   class="st3"
   d="m 252.3,114 c -0.1,-0.4 -0.3,-1.1 -0.4,-2 -1.1,1.5 -2.4,2.3 -4,2.3 -1.6,0 -2.9,-0.5 -3.7,-1.3 -0.9,-0.9 -1.3,-2.1 -1.3,-3.9 0,-1.9 0.7,-3.3 1.9,-4.4 1.2,-1.2 2.9,-1.6 5.1,-1.6 h 2.1 v -1.9 c 0,-1.2 -0.3,-1.9 -0.8,-2.3 -0.5,-0.5 -1.2,-0.7 -2.1,-0.7 -0.9,0 -1.6,0.3 -2.1,0.8 -0.5,0.5 -0.9,1.2 -0.9,2 h -2.9 c 0,-0.9 0.3,-1.7 0.8,-2.7 0.5,-0.9 1.2,-1.5 2.1,-2 0.9,-0.5 1.9,-0.8 3.1,-0.8 1.9,0 3.3,0.5 4.1,1.3 1.1,0.9 1.3,2.3 1.5,4 v 9.1 c 0,1.3 0.3,2.7 0.5,3.7 v 0.3 h -3 z m -4.2,-2.3 c 0.8,0 1.3,-0.3 2,-0.7 0.7,-0.4 1.2,-0.9 1.3,-1.5 v -4.4 h -1.6 c -1.3,0 -2.5,0.4 -3.3,0.9 -0.8,0.7 -1.2,1.3 -1.2,2.5 0,1.1 0.3,1.7 0.7,2.3 0.5,0.7 1.3,0.9 2.1,0.9 z"
   id="path48"
   inkscape:connector-curvature="0"
   style="fill:#333333" />
	<path
   class="st3"
   d="m 262.8,114 h -2.9 V 88.4 h 2.9 z"
   id="path50"
   inkscape:connector-curvature="0"
   style="fill:#333333" />
	<path
   class="st3"
   d="m 267.1,104.3 c 0,-2.8 0.5,-4.9 1.5,-6.3 1.1,-1.5 2.5,-2.1 4.4,-2.1 1.7,0 3.1,0.8 4,2.1 v -9.3 h 2.9 v 25.7 h -2.7 l -0.1,-1.9 c -1.1,1.5 -2.4,2.3 -4.1,2.3 -1.9,0 -3.3,-0.8 -4.4,-2.1 -1.1,-1.3 -1.6,-3.6 -1.6,-6.3 z m 3.1,1.6 c 0,2 0.3,3.6 0.9,4.4 0.7,1.1 1.5,1.3 2.9,1.3 1.5,0 2.5,-0.8 3.3,-2.3 v -9.1 c -0.8,-1.3 -1.9,-2.1 -3.3,-2.1 -1.5,0 -2.3,0.5 -2.9,1.3 -0.7,1.1 -0.9,2.4 -0.9,4.4 z"
   id="path52"
   inkscape:connector-curvature="0"
   style="fill:#333333" />
	<path
   class="st3"
   d="m 284.4,104.3 c 0,-2.7 0.7,-4.7 1.9,-6.3 1.2,-1.5 2.9,-2.3 5.1,-2.3 2.1,0 3.7,0.8 5.1,2.3 1.2,1.5 1.9,3.6 1.9,6.1 v 1.9 c 0,2.7 -0.7,4.7 -1.9,6.3 -1.2,1.5 -2.9,2.3 -5.1,2.3 -2.1,0 -3.7,-0.8 -5.1,-2.3 -1.2,-1.5 -1.9,-3.6 -1.9,-6 z m 3,1.6 c 0,1.9 0.4,3.3 1.2,4.4 0.8,1.1 1.7,1.6 2.9,1.6 2.7,0 3.9,-1.9 4,-5.7 v -2 c 0,-1.9 -0.4,-3.3 -1.2,-4.4 -0.8,-1.1 -1.7,-1.6 -2.9,-1.6 -1.2,0 -2.1,0.5 -2.9,1.6 -0.8,1.1 -1.2,2.5 -1.2,4.3 z"
   id="path54"
   inkscape:connector-curvature="0"
   style="fill:#333333" />
	<path
   class="st3"
   d="m 323.7,105.9 c 0,2.9 -0.5,4.9 -1.5,6.3 -0.9,1.3 -2.5,2.1 -4.3,2.1 -1.7,0 -3.2,-0.7 -4.1,-2 v 8.7 h -2.9 V 96 h 2.7 l 0.1,2 c 1.1,-1.5 2.4,-2.3 4.3,-2.3 2,0 3.5,0.7 4.4,2 1.1,1.3 1.5,3.5 1.5,6.3 z m -2.8,-1.6 c 0,-2 -0.3,-3.6 -0.9,-4.4 -0.7,-1.1 -1.6,-1.3 -3.1,-1.3 -1.3,0 -2.5,0.8 -3.2,2.1 v 9.3 c 0.8,1.3 1.7,2 3.3,2 1.3,0 2.3,-0.5 2.9,-1.3 0.7,-1.1 0.9,-2.4 1.1,-4.4 z"
   id="path56"
   inkscape:connector-curvature="0"
   style="fill:#333333" />
	<path
   class="st3"
   d="m 337.1,114 c -0.1,-0.4 -0.3,-1.1 -0.4,-2 -1.1,1.5 -2.4,2.3 -4,2.3 -1.6,0 -2.9,-0.5 -3.7,-1.3 -0.9,-0.9 -1.3,-2.1 -1.3,-3.9 0,-1.9 0.7,-3.3 1.9,-4.4 1.2,-1.2 2.9,-1.6 5.1,-1.6 h 2.1 v -1.9 c 0,-1.2 -0.3,-1.9 -0.8,-2.3 -0.5,-0.5 -1.2,-0.7 -2.1,-0.7 -0.9,0 -1.6,0.3 -2.1,0.8 -0.5,0.5 -0.9,1.2 -0.9,2 H 328 c 0,-0.9 0.3,-1.7 0.8,-2.7 0.5,-0.9 1.2,-1.5 2.1,-2 0.9,-0.5 1.9,-0.8 3.1,-0.8 1.9,0 3.3,0.5 4.1,1.3 1.1,0.9 1.3,2.3 1.5,4 v 9.1 c 0,1.3 0.3,2.7 0.5,3.7 v 0.3 h -3 z m -3.8,-2.3 c 0.8,0 1.3,-0.3 2,-0.7 0.7,-0.4 1.2,-0.9 1.3,-1.5 v -4.4 H 335 c -1.3,0 -2.5,0.4 -3.3,0.9 -0.8,0.7 -1.2,1.3 -1.2,2.5 0,1.1 0.3,1.7 0.7,2.3 0.2,0.7 1,0.9 2.1,0.9 z"
   id="path58"
   inkscape:connector-curvature="0"
   style="fill:#333333" />
	<path
   class="st3"
   d="m 351.9,98.8 c -0.4,-0.1 -0.9,-0.1 -1.3,-0.1 -1.5,0 -2.5,0.9 -3.2,2.5 v 12.9 h -2.9 V 96 h 2.9 v 1.9 c 0.8,-1.3 1.9,-2.1 3.3,-2.1 0.5,0 0.9,0.1 1.2,0.3 z"
   id="path60"
   inkscape:connector-curvature="0"
   style="fill:#333333" />
	<path
   class="st3"
   d="m 363.9,114 c -0.1,-0.4 -0.3,-1.1 -0.4,-2 -1.1,1.5 -2.4,2.3 -4,2.3 -1.6,0 -2.9,-0.5 -3.7,-1.3 -0.8,-0.8 -1.3,-2.1 -1.3,-3.9 0,-1.9 0.7,-3.3 1.9,-4.4 1.2,-1.1 2.9,-1.6 5.1,-1.6 h 2.1 v -1.9 c 0,-1.2 -0.3,-1.9 -0.8,-2.3 -0.5,-0.5 -1.2,-0.7 -2.1,-0.7 -0.9,0 -1.6,0.3 -2.1,0.8 -0.5,0.5 -0.9,1.2 -0.9,2 h -3.1 c 0,-0.9 0.3,-1.7 0.8,-2.7 0.5,-0.9 1.2,-1.5 2.1,-2 0.9,-0.5 1.9,-0.8 3.1,-0.8 1.9,0 3.3,0.5 4.1,1.3 1.1,0.9 1.3,2.3 1.5,4 v 9.1 c 0,1.3 0.3,2.7 0.5,3.7 v 0.3 h -2.8 z m -4,-2.3 c 0.8,0 1.3,-0.3 2,-0.7 0.7,-0.4 1.2,-0.9 1.3,-1.5 v -4.4 h -1.6 c -1.3,0 -2.5,0.4 -3.3,0.9 -0.8,0.7 -1.2,1.3 -1.2,2.5 0,1.1 0.3,1.7 0.7,2.3 0.4,0.7 1.2,0.9 2.1,0.9 z"
   id="path62"
   inkscape:connector-curvature="0"
   style="fill:#333333" />
	<path
   class="st3"
   d="M 383.3,91.6 V 96 h 2.7 v 2.4 h -2.7 v 11.3 c 0,0.8 0.1,1.2 0.4,1.6 0.3,0.4 0.7,0.5 1.2,0.5 0.4,0 0.8,-0.1 1.2,-0.3 v 2.5 c -0.7,0.3 -1.3,0.4 -2,0.4 -1.2,0 -2,-0.4 -2.7,-1.2 -0.7,-0.9 -0.9,-2 -0.9,-3.6 V 98.4 h -2.8 V 96 h 2.8 v -4.4 c -0.1,0 2.8,0 2.8,0 z"
   id="path64"
   inkscape:connector-curvature="0"
   style="fill:#333333" />
	<path
   class="st3"
   d="m 393.3,91.2 c 0,0.5 -0.1,0.9 -0.4,1.2 -0.3,0.4 -0.8,0.5 -1.2,0.5 -0.5,0 -1.1,-0.1 -1.2,-0.5 -0.3,-0.4 -0.4,-0.8 -0.4,-1.2 0,-0.5 0.1,-0.9 0.4,-1.2 0.3,-0.4 0.7,-0.5 1.2,-0.5 0.7,0 1.1,0.1 1.2,0.5 0.1,0.3 0.4,0.7 0.4,1.2 z M 393,114 h -2.9 V 96 h 2.9 z"
   id="path66"
   inkscape:connector-curvature="0"
   style="fill:#333333" />
</g>
</svg>